<?xml version="1.0" encoding="UTF-8"?>
<svg width="287px" height="64px" viewBox="0 0 287 64" version="1.1" xmlns="http://www.w3.org/2000/svg" xmlns:xlink="http://www.w3.org/1999/xlink">
    <title>v-2-logo 1</title>
    <defs>
        <rect id="path-1" x="0" y="0" width="287" height="62"></rect>
    </defs>
    <g id="final" stroke="none" stroke-width="1" fill="none" fill-rule="evenodd">
        <g id="Option-1-Copy" transform="translate(-357, -44)">
            <g id="v-2-logo-1" transform="translate(357, 44)">
                <mask id="mask-2" fill="white">
                    <use xlink:href="#path-1"></use>
                </mask>
                <g id="Clip" fill-rule="nonzero"></g>
                <g id="Group" mask="url(#mask-2)">
                    <g transform="translate(1, 0)" id="Vector">
                        <g fill-rule="nonzero">
                            <path d="M10.1704046,8.69473231 L27.427781,8.69473231 L27.427781,25.8299159 L34.1080031,32.4641599 C35.4020604,30.8728599 36.1794797,28.8517466 36.1794797,26.6567368 L36.1794797,0.0032810311 L26.8422564,0 L9.33722172,0 C7.12797562,0 5.094223,0.774323307 3.49018243,2.05884691 L10.1704046,8.69473231 Z" fill="#F15A24"></path>
                            <path d="M25.8745853,27.2374798 L15.4122392,27.2374798 L8.58604573,27.1292058 L8.75333791,18.8150721 L8.75333791,10.2335358 L2.01243129,3.54351356 C0.756096886,5.12332996 0,7.11327483 0,9.27383376 L0,26.6583768 C0,31.7587393 4.20199558,35.9322106 9.33722172,35.9322106 L26.8438991,35.9322106 C29.0170626,35.9322106 31.0212926,35.1808556 32.6138523,33.9307828 L25.8729445,27.2374798 L25.8745853,27.2374798 Z" fill="#2D81AF"></path>
                        </g>
                        <g transform="translate(44.9131, 5.8714)">
                            <path d="M25.8811453,1.77635684e-15 L16.6833342,24.7028829 L9.16500874,24.7028829 L0,1.77635684e-15 L6.3374362,1.77635684e-15 L12.4534562,18.1998784 L12.9208918,19.597598 L13.3932475,18.2048004 L19.5453491,1.77635684e-15 L25.8811453,1.77635684e-15 Z M46.1268288,20.2324776 L46.1268288,24.7028829 L28.2872094,24.7028829 L28.2872094,20.5687832 C30.7769166,18.74453 32.8336287,17.2122885 34.408147,16.0032286 C36.0335092,14.7564369 37.3160869,13.6933831 38.2099541,12.8468772 C39.1448244,11.9593583 39.7647895,11.2276884 40.1092153,10.602652 C40.4618419,9.95792939 40.6340574,9.28203701 40.6340574,8.58481792 C40.6340574,7.56769832 40.2125448,6.76220528 39.417085,6.24216187 C38.6773894,5.76805289 37.8081223,5.52525616 36.8289687,5.52525616 C35.4184627,5.52525616 34.1506486,5.78445754 33.0566864,6.28153373 C32.1332969,6.71134878 31.2623929,7.27568646 30.4685732,7.97126501 L27.6639608,4.55899218 C28.2019212,4.01270052 28.7792451,3.53531099 29.3942914,3.12518212 C30.1307067,2.6363085 30.9146853,2.2294605 31.7298266,1.91612204 C32.5449679,1.59950255 33.3896307,1.3616279 34.231014,1.21070048 C35.0740374,1.05977305 35.915421,0.984309322 36.7190814,0.984309322 C38.0771035,0.984309322 39.3383585,1.16968763 40.4716837,1.54208464 C41.6000886,1.91120061 42.5841627,2.4361654 43.3927435,3.09565264 C44.1996842,3.75678037 44.8294918,4.55735178 45.2772455,5.48588351 C45.7200788,6.40949376 45.9431358,7.45122165 45.9431358,8.58645831 C45.9431358,9.4477289 45.7889644,10.3007966 45.4757009,11.1276164 C45.1575169,11.9642793 44.6556386,12.8173477 43.9848281,13.6589322 C43.2992566,14.5202027 42.4201499,15.427408 41.3606302,16.3559397 C40.2978303,17.2877525 39.0152544,18.2868256 37.5555447,19.3137883 L36.2467257,20.2324776 L46.1268288,20.2324776 Z" fill="#2D81AF"></path>
                            <path d="M66.2462248,15.9933866 C65.8575156,15.2633572 65.3277555,14.6317578 64.6749864,14.1182764 C64.0090964,13.6047951 63.254637,13.1799022 62.4132537,12.8583611 C61.5636698,12.5351796 60.6796415,12.2382457 59.7857742,11.9708417 C58.8853465,11.7034376 58.0111598,11.4409552 57.1566555,11.1833942 C56.2923105,10.9274738 55.5066972,10.6190576 54.8112849,10.2778304 C54.0994714,9.91691698 53.5188672,9.46577507 53.0924352,8.93096702 C52.6496019,8.37647279 52.4265417,7.66940975 52.4265417,6.83274687 C52.4265417,6.13880882 52.579073,5.48752454 52.8824958,4.90678206 C53.190839,4.32768013 53.6090739,3.82404161 54.1404739,3.3991481 C54.6620331,2.98245716 55.2885592,2.65435418 55.9987326,2.42632253 C56.7039856,2.1999314 57.4748425,2.09001708 58.2899838,2.09001708 C59.6808084,2.09001708 60.9961854,2.34101575 62.2000359,2.8364514 C63.3284408,3.3039983 64.3272763,4.04059 65.1719398,5.0298208 L66.2002953,3.87489792 C65.3211892,2.89058859 64.2518329,2.11462474 63.0151799,1.56505205 C61.7080017,0.98595011 60.1531661,0.692297807 58.3998743,0.692297807 C57.345275,0.692297807 56.3415147,0.844865689 55.4132049,1.13687745 C54.483255,1.43381074 53.6582765,1.85870435 52.9579439,2.39679344 C52.2674519,2.93160149 51.7147304,3.59272898 51.3178205,4.35884971 C50.924191,5.12004887 50.7273752,5.99116301 50.7273752,6.94430245 C50.7273752,8.28460354 51.0586798,9.35586038 51.7245698,10.1203406 C52.405221,10.9028665 53.2695659,11.5410268 54.3044837,12.0118547 C55.3525225,12.4908852 56.5055294,12.882969 57.7323416,13.1799023 C58.9903163,13.4883192 60.1679238,13.855794 61.2422045,14.2692039 C62.3345267,14.6924569 63.2595576,15.2535133 63.9844921,15.9294057 C64.7455093,16.6348273 65.1276558,17.6273399 65.1276558,18.8872558 C65.1276558,19.4269854 65.0276123,20.0028061 64.824237,20.5966726 C64.6208617,21.2069444 64.2518307,21.7663593 63.7368319,22.2699976 C63.2251134,22.7637928 62.5329841,23.182125 61.6932409,23.5102281 C60.8485775,23.8334097 59.7906946,23.9991007 58.5442009,23.9991007 C57.6585343,23.9991007 56.8286319,23.8990293 56.084016,23.6972459 C55.3377598,23.500384 54.6308705,23.232981 53.9813817,22.8950348 C53.3302527,22.5587292 52.7381687,22.1682864 52.2264503,21.7302688 C51.7901775,21.3693554 51.3965445,20.9854744 51.0537587,20.5917507 L50.0450833,21.776203 C50.9110684,22.8146494 52.0427567,23.6759202 53.4106195,24.3419694 C54.8457274,25.0441101 56.5596556,25.3968203 58.5032016,25.3968203 C60.0744397,25.3968203 61.4062187,25.183554 62.4690186,24.7717846 C63.5219778,24.3616558 64.3879623,23.8284885 65.0440116,23.1821254 C65.6885801,22.5423244 66.151096,21.8270597 66.4200763,21.0543769 C66.6923367,20.26857 66.8268286,19.4926049 66.8268286,18.7412488 C66.8268286,17.647025 66.6332939,16.720135 66.2462248,15.9933866 Z M91.7977035,17.384543 C91.3368288,18.7117201 90.6709375,19.8797675 89.8295543,20.8640768 C88.9799704,21.8483862 87.9466962,22.6292708 86.759247,23.1722814 C85.5717977,23.7218541 84.2252516,23.9991007 82.7589813,23.9991007 C81.2681093,23.9991007 79.9051718,23.7218541 78.7177226,23.1722814 C77.5319135,22.6292708 76.4969911,21.8467456 75.6506875,20.8640768 C74.8076641,19.8797675 74.1516171,18.7117203 73.698943,17.3812622 C73.2479091,16.0590068 73.0182904,14.6022281 73.0182904,13.0453789 C73.0182904,11.467203 73.2479091,9.99402056 73.698943,8.66848401 C74.1516171,7.34294746 74.8076641,6.17818151 75.6506875,5.20371535 C76.4969911,4.23088969 77.5319135,3.46148781 78.7177226,2.9168367 C79.9117324,2.367264 81.2681093,2.08837649 82.7589813,2.08837649 C84.2252516,2.08837649 85.5717977,2.367264 86.759247,2.9168367 C87.9466962,3.46148781 88.9799722,4.23088969 89.8262758,5.20371535 C90.6709393,6.17161944 91.3351887,7.33638549 91.7977035,8.66848401 C92.2602183,9.99566105 92.4931154,11.467203 92.4931154,13.0453789 C92.4931154,14.6022281 92.2602183,16.0590065 91.7977035,17.384543 Z M93.3787835,8.16484628 C92.840823,6.66705567 92.0617638,5.34644032 91.0678491,4.24729492 C90.0739344,3.14322805 88.8618847,2.26555218 87.4546589,1.64051576 C86.0474331,1.01055782 84.4696299,0.693938399 82.7589813,0.693938399 C81.0253709,0.693938399 79.4344514,1.01055782 78.0436268,1.64051576 C76.6511622,2.26555218 75.4391141,3.14322805 74.4501198,4.24729492 C73.4512847,5.3513618 72.6771423,6.66705567 72.1342615,8.16484628 C71.5979412,9.66099639 71.3191238,11.304792 71.3191238,13.0453789 C71.3191238,14.7843252 71.5979412,16.4281233 72.1342615,17.9242734 C72.6755022,19.422064 73.4512847,20.7377567 74.4501198,21.8418236 C75.4440345,22.9458905 76.6511631,23.8235658 78.0419876,24.4486023 C79.4393727,25.0785602 81.0253709,25.3951807 82.7589813,25.3951807 C84.4679899,25.3951807 86.0474331,25.0785602 87.4546589,24.4486023 C88.8569644,23.8235658 90.0739344,22.9458905 91.0678491,21.8418236 C92.0617638,20.7377567 92.840823,19.422064 93.3787835,17.9242734 C93.9200242,16.4281233 94.1939212,14.7843252 94.1939212,13.0453789 C94.1939212,11.3064326 93.9200242,9.66099639 93.3787835,8.16484628 Z M112.917569,23.5610844 L112.917569,24.9571627 L99.7342613,24.9571627 L99.7342613,1.0958646 L101.290734,1.0958646 L101.290734,23.5610844 L112.917569,23.5610844 Z M135.031355,1.0958646 L135.031355,15.8572235 C135.031355,18.7970274 134.260491,21.1511672 132.741737,22.8491006 C131.224623,24.5388315 128.938289,25.3968203 125.933583,25.3968203 C124.441071,25.3968203 123.110937,25.1687885 121.980892,24.7192872 C120.859048,24.2714265 119.904493,23.6365481 119.140195,22.8261335 C118.379178,22.0189999 117.796941,21.0150033 117.419712,19.8518778 C117.032643,18.6756282 116.839102,17.3336874 116.839102,15.8572235 L116.839102,1.0958646 L118.393949,1.0958646 L118.393949,15.8227729 C118.393949,18.3573692 119.040152,20.3752022 120.317808,21.8172153 C121.598744,23.26415 123.488159,23.9991007 125.933583,23.9991007 C128.401969,23.9991007 130.301237,23.26415 131.572333,21.8172153 C132.835228,20.3735617 133.476521,18.3573692 133.476521,15.8227729 L133.476521,1.0958646 L135.031355,1.0958646 Z M157.066407,1.0958646 L157.066407,2.4870219 L149.220063,2.4870219 L149.220063,24.9571627 L147.663578,24.9571627 L147.663578,2.4870219 L139.812316,2.4870219 L139.812316,1.0958646 L157.066407,1.0958646 Z M161.852286,24.9571627 L163.407132,24.9571627 L163.407132,1.09750519 L161.852286,1.09750519 L161.852286,24.9571627 Z M189.457204,17.384543 C188.994689,18.7117201 188.328804,19.8797675 187.489061,20.8640768 C186.637837,21.8483862 185.606197,22.6292708 184.417108,23.1722814 C183.231299,23.7218541 181.883112,23.9991007 180.416842,23.9991007 C178.92597,23.9991007 177.564672,23.7218541 176.377223,23.1722814 C175.189773,22.6292708 174.156491,21.8467456 173.310188,20.8640768 C172.467164,19.8797675 171.809483,18.7117203 171.358449,17.3812622 C170.905775,16.0590068 170.677797,14.6022281 170.677797,13.0453789 C170.677797,11.467203 170.905775,9.99402056 171.358449,8.66848401 C171.809483,7.34294746 172.467164,6.17326003 173.310188,5.20371535 C174.156491,4.23088969 175.189773,3.46148781 176.377223,2.9168367 C177.569592,2.367264 178.92597,2.08837649 180.416842,2.08837649 C181.883112,2.08837649 183.231298,2.367264 184.418747,2.9168367 C185.606196,3.46148781 186.637839,4.23088969 187.484143,5.20371535 C188.328806,6.17161944 188.989768,7.33638549 189.457204,8.66848401 C189.918078,9.99566105 190.152622,11.467203 190.152622,13.0453789 C190.152622,14.6022281 189.918078,16.0590065 189.457204,17.384543 Z M191.036638,8.16484628 C190.500318,6.66705567 189.719624,5.34644032 188.727349,4.24729492 C187.731794,3.14322805 186.519739,2.27047371 185.112514,1.64051576 C183.706928,1.01055782 182.127491,0.693938399 180.416842,0.693938399 C178.683232,0.693938399 177.092312,1.01055782 175.701488,1.64051576 C174.310663,2.26555218 173.09698,3.14322805 172.109626,4.24729492 C171.109151,5.3513618 170.335009,6.66705567 169.792129,8.16484628 C169.250888,9.66099639 168.978624,11.304792 168.978624,13.0453789 C168.978624,14.7843252 169.250888,16.4281233 169.792129,17.9242734 C170.333369,19.422064 171.109152,20.7377567 172.107987,21.8418236 C173.103542,22.9458905 174.310664,23.8235658 175.699848,24.4486023 C177.098874,25.0785602 178.683232,25.3951807 180.416842,25.3951807 C182.127491,25.3951807 183.706928,25.0785602 185.112514,24.4486023 C186.514819,23.8235658 187.731794,22.9458905 188.727349,21.8418236 C189.719624,20.7377567 190.498678,19.422064 191.036638,17.9242734 C191.577879,16.4281233 191.851782,14.7843252 191.851782,13.0453789 C191.851782,11.3064326 191.579519,9.66099639 191.036638,8.16484628 Z M216.087897,1.0958646 L216.087897,24.9571627 L214.447774,24.9571627 L199.396347,4.12589658 L198.948601,3.5057817 L198.948601,24.9571627 L197.393768,24.9571627 L197.393768,1.0958646 L199.107693,1.0958646 L214.085293,21.635118 L214.533039,22.2503113 L214.533039,1.0958646 L216.087897,1.0958646 Z M238.086862,18.7412488 C238.086862,19.4876833 237.95237,20.2669295 237.68011,21.0543769 C237.41769,21.8254192 236.948621,22.5472459 236.302412,23.1821254 C235.646363,23.8284885 234.782006,24.3632956 233.727407,24.7701435 C232.671167,25.1835534 231.332824,25.3951807 229.768146,25.3951807 C227.81968,25.3951807 226.105748,25.0424695 224.67064,24.3419694 C223.302778,23.6775607 222.174395,22.8162898 221.305129,21.776203 L222.313789,20.5917507 C222.661495,20.9854744 223.055119,21.3677149 223.486471,21.7302688 C224.00475,22.169927 224.595207,22.5620102 225.241415,22.8950348 C225.892544,23.232981 226.597793,23.5020245 227.344049,23.6972459 C228.093586,23.8990293 228.918568,23.9991007 229.804234,23.9991007 C231.055648,23.9991007 232.113525,23.8334097 232.953268,23.5102281 C233.793011,23.182125 234.48516,22.7654332 234.995239,22.2699976 C235.518438,21.7663593 235.885813,21.2069444 236.089188,20.5966726 C236.286003,20.0028061 236.387702,19.4269854 236.387702,18.8872558 C236.387702,17.6273399 236.005543,16.6299067 235.244526,15.9277661 C234.519591,15.2535142 233.594566,14.6924575 232.502244,14.2708451 C231.432884,13.8557947 230.250341,13.4883192 228.997287,13.1799023 C227.770474,12.882969 226.619129,12.4908854 225.56453,12.0102143 C224.536172,11.5426674 223.665245,10.901226 222.984594,10.1203406 C222.325264,9.35421984 221.985769,8.28460354 221.985769,6.94430245 C221.985769,5.9928035 222.185865,5.11840838 222.576215,4.35884971 C222.974765,3.59272898 223.527486,2.93160149 224.216338,2.39679344 C224.918311,1.85870435 225.741655,1.43381074 226.673245,1.13687745 C227.601554,0.844865689 228.608577,0.693938399 229.658256,0.693938399 C231.418108,0.693938399 232.968029,0.984309566 234.275207,1.56505205 C235.51186,2.11462474 236.58778,2.8905884 237.466886,3.87325713 L236.436903,5.02818001 C235.58732,4.0405897 234.588481,3.30563885 233.460076,2.8364514 C232.257865,2.34101575 230.945762,2.09001708 229.550017,2.09001708 C228.739796,2.09001708 227.968943,2.19993167 227.26369,2.42796332 C226.551877,2.65435445 225.926987,2.98081691 225.400507,3.40078889 C224.872388,3.82404186 224.450864,4.32767998 224.147441,4.90842246 C223.840738,5.4875244 223.686581,6.1388095 223.686581,6.83438805 C223.686581,7.67105093 223.909623,8.37647279 224.352456,8.93096702 C224.783809,9.46577507 225.361137,9.91855684 226.074591,10.2761892 C226.766723,10.6206974 227.557277,10.9274738 228.416701,11.1833942 C229.269566,11.4409552 230.145386,11.7034376 231.045814,11.9708417 C231.939681,12.2382457 232.825352,12.5351796 233.679857,12.8583611 C234.514679,13.1799022 235.274056,13.6047951 235.935026,14.1182764 C236.586155,14.6317578 237.119196,15.2617167 237.504625,15.9933866 C237.893335,16.7250565 238.086862,17.6486655 238.086862,18.7412488 Z" stroke="#F15A24" fill="#F15A24"></path>
                        </g>
                        <path d="M94.0709107,46.1772307 L95.2321183,46.1772307 L95.2321183,58.4466429 L94.0709107,58.4466429 L94.0709107,46.1772307 Z M98.450037,49.3729547 L99.5571252,49.3729547 L99.5571252,50.9970647 C99.9999585,50.3753093 100.490355,49.9094023 101.026676,49.6026259 C101.564636,49.2925685 102.15016,49.1383616 102.781607,49.1383616 C103.424535,49.1383616 103.995291,49.3106166 104.492248,49.6551248 C104.990846,49.9996331 105.35824,50.465537 105.596058,51.0495605 C105.832236,51.6319435 105.950318,52.5424338 105.950318,53.7761014 L105.950318,58.4466429 L104.851438,58.4466429 L104.851438,54.1173227 C104.851438,53.0723143 104.810441,52.3750968 104.726795,52.0240264 C104.595585,51.4235978 104.346281,50.9724588 103.983814,50.6689634 C103.619707,50.3654681 103.145711,50.21454 102.560187,50.21454 C101.891017,50.21454 101.292377,50.4474932 100.762617,50.9150401 C100.232857,51.382587 99.8835108,51.9600494 99.7145781,52.6507064 C99.6210911,53.0509922 99.5686052,53.744931 99.5587644,54.7341618 L99.5571252,58.4466429 L98.450037,58.4466429 L98.450037,49.3729547 Z M113.381726,50.3654658 L112.669903,51.1397893 C112.079459,50.5327986 111.502147,50.2309455 110.939585,50.2309455 C110.580398,50.2309455 110.273688,50.3556248 110.017829,50.6066237 C109.76197,50.855982 109.635677,51.1479913 109.635677,51.4826565 C109.635677,51.7779493 109.740647,52.0568377 109.950583,52.3242417 C110.135917,52.563757 110.496749,52.8377213 111.036349,53.1477787 L111.279079,53.2839418 C112.100781,53.733443 112.660068,54.1681846 112.95529,54.5848756 C113.243952,55.0081285 113.389922,55.4822358 113.389922,56.0121223 C113.389922,56.7552758 113.142259,57.3868741 112.646941,57.9036364 C112.151624,58.4220393 111.531665,58.6795995 110.788689,58.6795995 C110.293372,58.6795995 109.82102,58.5647632 109.369986,58.338372 C108.918952,58.1086999 108.546645,57.7970007 108.251423,57.3950744 L108.946829,56.5616935 C109.511031,57.2343048 110.109679,57.5706132 110.741126,57.5706132 C111.18396,57.5706132 111.56118,57.4196833 111.872803,57.119469 C112.182786,56.8192546 112.338605,56.4665431 112.338605,56.0613357 C112.338605,55.7266706 112.235271,55.4297394 112.030256,55.1688974 C111.849842,54.9441468 111.472623,54.6701772 110.898579,54.3437146 L110.639432,54.2009931 C109.863654,53.7793806 109.337179,53.3610474 109.058358,52.9509186 C108.779537,52.5391492 108.638492,52.0683234 108.638492,51.5400774 C108.638492,50.8510609 108.861544,50.2785195 109.307658,49.8224562 C109.752131,49.3663929 110.314693,49.1383616 110.993704,49.1383616 C111.784244,49.1383616 112.579706,49.5484891 113.381726,50.3654658 Z M116.09285,49.3729547 L117.191729,49.3729547 L117.191729,51.0397197 C117.629642,50.4064807 118.131517,49.9307289 118.70064,49.6141094 C119.269762,49.29749 119.906134,49.1383616 120.606467,49.1383616 C121.828359,49.1383616 122.874761,49.6026281 123.744026,50.5328004 C124.613292,51.4596916 125.047921,52.5768815 125.047921,53.8843723 C125.047921,55.2181114 124.618206,56.3517052 123.755501,57.283518 C122.894436,58.2136902 121.854595,58.6795995 120.639264,58.6795995 C119.952052,58.6795995 119.323885,58.5303092 118.748202,58.2300949 C118.174159,57.9298806 117.655884,57.4820257 117.191729,56.8865186 L117.191729,61.76541 L116.09285,61.76541 L116.09285,49.3729547 Z M120.519538,50.2653962 C119.560066,50.2653962 118.75313,50.6181046 118.09708,51.3235263 C117.441031,52.0289479 117.113009,52.908268 117.113009,53.9598383 C117.113009,54.6488548 117.258977,55.2689687 117.550919,55.8185414 C117.844501,56.3697546 118.26273,56.8061314 118.808891,57.1293129 C119.353412,57.4508539 119.929098,57.6116224 120.534304,57.6116224 C121.131309,57.6116224 121.690593,57.4492099 122.215433,57.1243878 C122.740272,56.7995658 123.156852,56.3451471 123.466835,55.7611236 C123.778458,55.1771001 123.934276,54.5651887 123.934276,53.9253877 C123.934276,53.2806651 123.780108,52.6687496 123.471765,52.0912882 C123.163422,51.5121862 122.748467,51.0643269 122.225268,50.7444264 C121.705349,50.4245259 121.136225,50.2653962 120.519538,50.2653962 Z M128.242878,45.6358607 C128.495457,45.6358607 128.71032,45.7310111 128.890734,45.9196704 C129.069507,46.1083297 129.159704,46.336361 129.159704,46.6037651 C129.159704,46.864607 129.069507,47.0893587 128.890734,47.2796585 C128.71032,47.4683178 128.495457,47.5618255 128.242878,47.5618255 C127.99522,47.5618255 127.780365,47.4683178 127.603231,47.2796585 C127.422818,47.0893587 127.332609,46.864607 127.332609,46.6037651 C127.332609,46.336361 127.422819,46.1083297 127.601592,45.9196704 C127.782006,45.7310111 127.99686,45.6358607 128.242878,45.6358607 Z M127.688521,49.3729547 L128.803805,49.3729547 L128.803805,58.4450033 L127.688521,58.4450033 L127.688521,49.3729547 Z M131.411595,49.3729547 L132.543284,49.3729547 L132.543284,50.6984921 C132.87951,50.1751677 133.235419,49.7847239 133.609367,49.527163 C133.983315,49.2679615 134.37366,49.1383616 134.778771,49.1383616 C135.085474,49.1383616 135.411858,49.2417136 135.759564,49.446778 L135.182245,50.431088 C134.950987,50.326095 134.755809,50.2735974 134.596717,50.2735974 C134.229329,50.2735974 133.87342,50.4327271 133.530634,50.7526276 C133.187848,51.0725281 132.927073,51.5679662 132.7483,52.2405776 C132.62201,52.716327 132.554765,53.6333766 132.543284,54.9950044 L132.543284,58.4466429 L131.411595,58.4466429 L131.411595,49.3729547 Z M137.824483,45.6358607 C138.075422,45.6358607 138.291914,45.7310111 138.470687,45.9196704 C138.651101,46.1083297 138.73967,46.336361 138.73967,46.6037651 C138.73967,46.864607 138.649461,47.0893587 138.470687,47.2796585 C138.291914,47.4683178 138.077063,47.5618255 137.822844,47.5618255 C137.576826,47.5618255 137.361971,47.4683178 137.183197,47.2796585 C137.002784,47.0893587 136.914214,46.864607 136.914214,46.6037651 C136.914214,46.336361 137.002784,46.1083297 137.183197,45.9196704 C137.361971,45.7310111 137.578465,45.6358607 137.824483,45.6358607 Z M137.270113,49.3729547 L138.385398,49.3729547 L138.385398,58.4450033 L137.270113,58.4450033 L137.270113,49.3729547 Z M141.411427,49.3729547 L142.518515,49.3729547 L142.518515,50.9970647 C142.961349,50.3753093 143.451739,49.9094023 143.98806,49.6026259 C144.52602,49.2925685 145.111544,49.1383616 145.742991,49.1383616 C146.385919,49.1383616 146.956693,49.3106166 147.45529,49.6551248 C147.952248,49.9996331 148.31963,50.465537 148.557448,51.0495605 C148.793626,51.6319435 148.91336,52.5424338 148.91336,53.7761014 L148.91336,58.4466429 L147.814468,58.4466429 L147.814468,54.1173227 C147.814468,53.0723143 147.771831,52.3750968 147.688185,52.0240264 C147.556975,51.4235978 147.307671,50.9724588 146.945204,50.6689634 C146.581097,50.3654681 146.107107,50.21454 145.521583,50.21454 C144.852413,50.21454 144.253767,50.4474932 143.724007,50.9150401 C143.194247,51.382587 142.844901,51.9600494 142.675968,52.6507064 C142.571001,53.1002077 142.518515,53.9237429 142.518515,55.1180381 L142.518515,58.4466429 L141.411427,58.4466429 L141.411427,49.3729547 Z M159.424904,49.3729547 L160.540189,49.3729547 L160.540189,56.6027089 C160.540189,57.8757489 160.435219,58.8075602 160.223644,59.3965053 C159.933342,60.2315276 159.431467,60.8729679 158.714733,61.3241097 C157.997999,61.7736109 157.135288,62 156.129892,62 C155.391837,62 154.72923,61.8900851 154.142066,61.670256 C153.554902,61.450427 153.075986,61.1551389 152.706958,60.7843824 C152.33793,60.4152665 151.998421,59.8755323 151.688438,59.1635486 L152.889012,59.1635486 C153.217037,59.7639773 153.636914,60.2085565 154.153553,60.4972872 C154.670192,60.7876585 155.309836,60.9320291 156.074134,60.9320291 C156.82859,60.9320291 157.46332,60.7843775 157.98324,60.4858037 C158.501519,60.1872299 158.872177,59.8131954 159.093594,59.3636942 C159.31501,58.9125524 159.424904,58.1874452 159.424904,57.1867307 L159.424904,56.7191841 C159.009953,57.2769593 158.501514,57.7034913 157.899589,57.9987841 C157.299304,58.2973579 156.661295,58.4466429 155.987205,58.4466429 C155.196665,58.4466429 154.453688,58.2399415 153.758275,57.8248911 C153.062863,57.4114812 152.5249,56.8537052 152.146031,56.1515646 C151.767163,55.452705 151.576908,54.6816602 151.576908,53.8433569 C151.576908,53.0034129 151.773735,52.2192479 152.170645,51.49414 C152.564274,50.7690322 153.112075,50.194853 153.810768,49.7716 C154.50782,49.3499876 155.244224,49.1383616 156.018363,49.1383616 C156.661291,49.1383616 157.261576,49.2794459 157.817578,49.559974 C158.37358,49.8405022 158.909906,50.3031286 159.424904,50.9478512 L159.424904,49.3729547 Z M156.161062,50.2653962 C155.534535,50.2653962 154.952288,50.4245259 154.414327,50.7444264 C153.876367,51.0643269 153.454861,51.5056265 153.151438,52.0699638 C152.844735,52.6343011 152.692193,53.2445685 152.692193,53.9007747 C152.692193,54.8965675 153.007101,55.7184675 153.640189,56.3697522 C154.271636,57.0193963 155.091699,57.3458609 156.098734,57.3458609 C157.115611,57.3458609 157.932396,57.0226791 158.552363,56.3779565 C159.170689,55.7332339 159.480663,54.8850887 159.480663,53.8351588 C159.480663,53.1510639 159.337981,52.5391497 159.05424,52.0043417 C158.768858,51.4662526 158.365389,51.0430011 157.84547,50.7313032 C157.323911,50.4196053 156.762988,50.2653962 156.161062,50.2653962 Z M179.873966,48.4542669 L178.957127,49.197419 C178.451969,48.5018404 177.843495,47.9752369 177.136602,47.6159641 C176.426428,47.2583317 175.649005,47.0795129 174.799421,47.0795129 C173.872751,47.0795129 173.013327,47.3141071 172.224428,47.7849351 C171.432248,48.252482 170.820479,48.8840802 170.385846,49.6764492 C169.951214,50.4688182 169.733085,51.3596167 169.733085,52.350488 C169.733085,53.8449977 170.220201,55.0934323 171.192794,56.0941468 C172.163747,57.0948613 173.390553,57.59522 174.871584,57.59522 C176.498587,57.59522 177.861525,56.9226094 178.957127,55.5773867 L179.875605,56.3106948 C179.295001,57.0899396 178.571698,57.6920117 177.704073,58.1169052 C176.838088,58.5434392 175.870421,58.7550656 174.80106,58.7550656 C172.767307,58.7550656 171.161631,58.0397959 169.987302,56.6109069 C169.001588,55.405128 168.507911,53.9483542 168.507911,52.2405776 C168.507911,50.4458537 169.104908,48.9349381 170.298917,47.7078325 C171.492927,46.4823675 172.988721,45.8704538 174.784656,45.8704538 C175.870417,45.8704538 176.851211,46.0952037 177.723756,46.5496265 C178.599582,47.0024088 179.314683,47.6372902 179.873966,48.4542669 Z M182.760574,45.8688142 L183.866023,45.8688142 L183.866023,50.9987043 C184.313776,50.3753084 184.807455,49.9094032 185.343775,49.6009863 C185.881736,49.2925694 186.463971,49.1383616 187.090498,49.1383616 C187.733426,49.1383616 188.3042,49.3106166 188.802797,49.6551248 C189.299755,49.9996331 189.667137,50.4638992 189.904955,51.0446416 C190.142773,51.6253841 190.260867,52.5358717 190.260867,53.7761014 L190.260867,58.4466429 L189.153778,58.4466429 L189.153778,54.1173227 C189.153778,53.0723143 189.114418,52.3750968 189.035692,52.0240264 C188.897922,51.4235978 188.650261,50.9724588 188.287794,50.6689634 C187.926966,50.3654681 187.454614,50.21454 186.86909,50.21454 C186.19992,50.21454 185.601274,50.4474932 185.071514,50.9150401 C184.541754,51.382587 184.192407,51.9600494 184.025115,52.6507064 C183.929988,53.0444301 183.877503,53.7400041 183.867662,54.732516 L183.867662,58.4466429 L182.760574,58.4466429 L182.760574,45.8688142 Z M201.935258,49.3729547 L201.935258,58.4450033 L200.844575,58.4450033 L200.844575,56.8865186 C200.38042,57.4820257 199.860508,57.9298806 199.283184,58.2300949 C198.705861,58.5303092 198.076054,58.6795995 197.390483,58.6795995 C196.173511,58.6795995 195.133672,58.2136902 194.272607,57.283518 C193.411542,56.3517052 192.980186,55.2181114 192.980186,53.8843723 C192.980186,52.5768815 193.414816,51.4596893 194.284081,50.5311576 C195.153347,49.6026259 196.199749,49.1383616 197.421641,49.1383616 C198.126894,49.1383616 198.76654,49.29749 199.338943,49.6141094 C199.911346,49.9307289 200.413222,50.4064798 200.844575,51.0413593 L200.844575,49.3729547 L201.935258,49.3729547 Z M197.50857,50.2653962 C196.891883,50.2653962 196.322759,50.4245259 195.80284,50.7444264 C195.27964,51.0643269 194.864686,51.5121871 194.556343,52.0896486 C194.247999,52.6687505 194.095471,53.2806642 194.095471,53.9270273 C194.095471,54.5668283 194.249637,55.1771001 194.56126,55.7611236 C194.872884,56.3451471 195.289475,56.7995658 195.814314,57.1243878 C196.339154,57.4492099 196.900087,57.6116224 197.502013,57.6116224 C198.107218,57.6116224 198.682894,57.4508539 199.224135,57.1293129 C199.767015,56.8061314 200.185247,56.3697546 200.477189,55.8185414 C200.769131,55.2689687 200.915099,54.6488548 200.915099,53.9598383 C200.915099,52.9099085 200.587077,52.0305884 199.931027,51.3235263 C199.274978,50.6181046 198.468042,50.2653962 197.50857,50.2653962 Z M205.161385,49.3729547 L206.266822,49.3729547 L206.266822,50.9970647 C206.709655,50.3753093 207.200057,49.9094023 207.738018,49.6026259 C208.274338,49.2925685 208.859849,49.1383616 209.492937,49.1383616 C210.134225,49.1383616 210.706652,49.3106166 211.203609,49.6551248 C211.700566,49.9996331 212.067949,50.465537 212.305767,51.0495605 C212.543585,51.6319435 212.661666,52.5424338 212.661666,53.7761014 L212.661666,58.4466429 L211.562787,58.4466429 L211.562787,54.1173227 C211.562787,53.0723143 211.52015,52.3750968 211.436504,52.0240264 C211.305294,51.4235978 211.057631,50.9724588 210.693523,50.6689634 C210.329416,50.3654681 209.857053,50.21454 209.271529,50.21454 C208.602359,50.21454 208.002073,50.4474932 207.472314,50.9150401 C206.942554,51.382587 206.593207,51.9600494 206.425914,52.6507064 C206.332427,53.0509922 206.278302,53.744931 206.268461,54.7341618 L206.268461,58.4466429 L205.161385,58.4466429 L205.161385,49.3729547 Z M223.174863,49.3729547 L224.290134,49.3729547 L224.290134,56.6027089 C224.290134,57.8757489 224.183526,58.8075602 223.97195,59.3965053 C223.683288,60.2315276 223.179774,60.8729679 222.46304,61.3241097 C221.746306,61.7736109 220.885234,62 219.878199,62 C219.140143,62 218.477549,61.8900851 217.890385,61.670256 C217.303221,61.450427 216.824305,61.1551389 216.455277,60.7843824 C216.08789,60.4152665 215.74674,59.8755323 215.436757,59.1635486 L216.637318,59.1635486 C216.965343,59.7639773 217.386873,60.2085565 217.901872,60.4972872 C218.418511,60.7876585 219.059783,60.9320291 219.82244,60.9320291 C220.576897,60.9320291 221.213267,60.7843775 221.731546,60.4858037 C222.251465,60.1872299 222.620496,59.8131954 222.841913,59.3636942 C223.063329,58.9125524 223.174863,58.1874452 223.174863,57.1867307 L223.174863,56.7191841 C222.758271,57.2769593 222.24982,57.7034913 221.649535,57.9987841 C221.04761,58.2973579 220.411255,58.4466429 219.735524,58.4466429 C218.944984,58.4466429 218.201994,58.2399415 217.506582,57.8248911 C216.81117,57.4114812 216.274846,56.8537052 215.894338,56.1515646 C215.515469,55.452705 215.325215,54.6816602 215.325215,53.8433569 C215.325215,53.0034129 215.522054,52.2192479 215.918964,51.49414 C216.312593,50.7690322 216.860394,50.194853 217.559087,49.7716 C218.256139,49.3499876 218.992555,49.1383616 219.768333,49.1383616 C220.411262,49.1383616 221.009895,49.2794459 221.565897,49.559974 C222.121899,49.8405022 222.658212,50.3031286 223.173211,50.9478512 L223.173211,49.3729547 L223.174863,49.3729547 Z M219.911008,50.2653962 C219.282841,50.2653962 218.700607,50.4245259 218.162646,50.7444264 C217.626326,51.0643269 217.204807,51.5056265 216.899744,52.0699638 C216.593041,52.6343011 216.440512,53.2445685 216.440512,53.9007747 C216.440512,54.8965675 216.75706,55.7184675 217.388508,56.3697522 C218.021595,57.0193963 218.840005,57.3458609 219.847041,57.3458609 C220.863917,57.3458609 221.682343,57.0226791 222.300669,56.3779565 C222.920636,55.7332339 223.228969,54.8850887 223.228969,53.8351588 C223.228969,53.1510639 223.087928,52.5391497 222.802546,52.0043417 C222.518805,51.4662526 222.113695,51.0430011 221.593776,50.7313032 C221.072217,50.4196053 220.512933,50.2653962 219.911008,50.2653962 Z M231.39515,49.1383616 C232.85978,49.1383616 234.029187,49.7256661 234.905013,50.8986346 C235.526619,51.7270949 235.841528,52.7606178 235.853009,54.0008475 L228.123112,54.0008475 C228.144433,55.0573394 228.462605,55.923531 229.079291,56.5994234 C229.695978,57.2753157 230.457004,57.6116224 231.363992,57.6116224 C231.800265,57.6116224 232.226697,57.5312382 232.640008,57.3704676 C233.053319,57.2096971 233.405954,56.9947915 233.694616,56.729028 C233.984918,56.461624 234.298165,56.0301651 234.63603,55.4362985 L235.567634,55.9530649 C235.262571,56.5863039 234.909937,57.0981407 234.509747,57.4869428 C234.107917,57.875745 233.656875,58.172678 233.158277,58.3761019 C232.6564,58.5778853 232.090578,58.6795995 231.45749,58.6795995 C230.056825,58.6795995 228.961201,58.1940053 228.170662,57.2244606 C227.380122,56.2549159 226.984866,55.1574103 226.984866,53.9335857 C226.984866,52.7835844 227.31945,51.7582631 227.98862,50.8559796 C228.836564,49.7108998 229.973163,49.1383616 231.39515,49.1383616 Z M231.411567,50.2555522 C230.568544,50.2555522 229.843603,50.5426427 229.236757,51.1151826 C228.793924,51.5318735 228.459339,52.1585521 228.233002,52.991934 L234.63603,52.991934 C234.488419,52.3685381 234.273579,51.871459 233.991478,51.499062 C233.709377,51.126665 233.335417,50.8264519 232.872902,50.5967797 C232.408748,50.3703886 231.921645,50.2555522 231.411567,50.2555522 Z" fill="#D2D6DA" fill-rule="nonzero"></path>
                    </g>
                </g>
            </g>
        </g>
    </g>
</svg>